<svg width="48" height="48" viewBox="0 0 48 48" fill="none" xmlns="http://www.w3.org/2000/svg">
<rect width="40" height="40" transform="translate(4)" fill="white"/>
<g filter="url(#filter0_d_51712_56)">
<circle cx="24" cy="20" r="19.5" stroke="black" shape-rendering="crispEdges"/>
</g>
<path d="M25 9C20.4 9 16.6 12.4 16.1 16.9L14.5 19C14 19.8 13.9 20.8 14.3 21.6C14.7 22.3 15.3 22.8 16 22.9V24C16 25.8 17.3 27.4 19 27.9V31H30V25.5C32.5 23.8 34 21.1 34 18C34 13 30 9 25 9ZM28 24.3V29H21V26H20C18.9 26 18 25.1 18 24V21H16.5C16.1 21 15.8 20.5 16.1 20.2L18 17.7C18.2 14 21.2 11 25 11C28.9 11 32 14.1 32 18C32 20.8 30.4 23.2 28 24.3Z" fill="#0A3871"/>
<defs>
<filter id="filter0_d_51712_56" x="0" y="0" width="48" height="48" filterUnits="userSpaceOnUse" color-interpolation-filters="sRGB">
<feFlood flood-opacity="0" result="BackgroundImageFix"/>
<feColorMatrix in="SourceAlpha" type="matrix" values="0 0 0 0 0 0 0 0 0 0 0 0 0 0 0 0 0 0 127 0" result="hardAlpha"/>
<feOffset dy="4"/>
<feGaussianBlur stdDeviation="2"/>
<feComposite in2="hardAlpha" operator="out"/>
<feColorMatrix type="matrix" values="0 0 0 0 0 0 0 0 0 0 0 0 0 0 0 0 0 0 0.25 0"/>
<feBlend mode="normal" in2="BackgroundImageFix" result="effect1_dropShadow_51712_56"/>
<feBlend mode="normal" in="SourceGraphic" in2="effect1_dropShadow_51712_56" result="shape"/>
</filter>
</defs>
</svg>
